<svg xmlns="http://www.w3.org/2000/svg" width="24.001" height="23.804" viewBox="0 0 24.001 23.804">
  <path id="iconmonstr-check-mark-6" d="M23.334,11.96a2.327,2.327,0,0,1-.393-2.727A2.326,2.326,0,0,0,21.4,5.869a2.324,2.324,0,0,1-1.8-2.081,2.326,2.326,0,0,0-3.112-2,2.325,2.325,0,0,1-2.642-.776,2.327,2.327,0,0,0-3.7,0,2.318,2.318,0,0,1-2.639.777,2.325,2.325,0,0,0-3.111,2,2.324,2.324,0,0,1-1.8,2.081A2.324,2.324,0,0,0,1.059,9.233,2.328,2.328,0,0,1,.667,11.96a2.323,2.323,0,0,0,.526,3.66,2.324,2.324,0,0,1,1.144,2.505,2.325,2.325,0,0,0,2.421,2.794,2.326,2.326,0,0,1,2.317,1.489,2.326,2.326,0,0,0,3.548,1.042,2.322,2.322,0,0,1,2.754,0,2.327,2.327,0,0,0,3.549-1.042,2.324,2.324,0,0,1,2.316-1.489,2.325,2.325,0,0,0,2.421-2.794,2.325,2.325,0,0,1,1.145-2.505,2.325,2.325,0,0,0,.526-3.66ZM10.75,17.39l-4.5-4.364,1.857-1.857,2.643,2.506,5.643-5.784L18.25,9.748Z" transform="translate(0.001 -0.098)" fill="#f52f7b"/>
</svg>
