<svg xmlns="http://www.w3.org/2000/svg" width="375" height="1163" viewBox="0 0 375 1163">
  <g id="グループ_57" data-name="グループ 57" transform="translate(0 -1171)">
    <g id="グループ_43" data-name="グループ 43" transform="translate(100.76 1183.981)">
      <text id="How_to" data-name="How to" transform="translate(11.24 26.019)" fill="#f52f7b" font-size="36" font-family="HiraginoSans-W6, Hiragino Sans" letter-spacing="0.08em"><tspan x="0" y="0">How to</tspan></text>
      <g id="グループ_14" data-name="グループ 14" transform="translate(-2 42.81)">
        <text id="ズムコン" transform="matrix(0.998, -0.07, 0.07, 0.998, -12.744, 25.803)" fill="#323232" font-size="25" font-family="TsukuARdGothic-Bold, Tsukushi A Round Gothic" font-weight="700"><tspan x="0" y="0">ズムコン</tspan></text>
        <text id="の楽しみ方" transform="translate(87.24 20.209)" fill="#323232" font-size="21" font-family="HiraginoSans-W6, Hiragino Sans"><tspan x="0" y="0">の楽しみ方</tspan></text>
      </g>
    </g>
    <path id="iconmonstr-note-31" d="M26.36,60.864H77.08v5.072H26.36ZM66,45.648H26.36V50.72H72.246A33.206,33.206,0,0,1,66,45.648ZM26.36,35.5H59.328a32.828,32.828,0,0,1-1.618-5.072H26.36V35.5ZM92.3,55.665V68.69c0,20.831-30.432,12.462-30.432,12.462s7.7,30.432-13.38,30.432H11.144V10.144H59.328A32.974,32.974,0,0,1,66,0H1V121.728H52.678c16.043,0,49.761-36.635,49.761-48.762V53.256A32.839,32.839,0,0,1,92.3,55.665Zm20.288-32.841A22.824,22.824,0,1,1,89.76,0,22.826,22.826,0,0,1,112.584,22.824ZM101.648,18.35l-3.53-3.53-10.732,11-5.031-4.773-3.53,3.535,8.561,8.3L101.648,18.35Z" transform="translate(143.273 1326.025)"/>
    <text id="_" data-name="１" transform="translate(85 1346)" fill="#f52f7b" font-size="55" font-family="HannotateSC-W7, Hannotate SC"><tspan x="-27.5" y="0">１</tspan></text>
    <text id="プランを決めて_公式LINEから受付しよう_" data-name="プランを決めて、
公式LINEから受付しよう！" transform="translate(188 1508)" fill="#323232" font-size="16" font-family="HiraginoSans-W5, Hiragino Sans"><tspan x="-63.68" y="0">プランを決めて、</tspan><tspan x="-98.952" y="27">公式LINEから受付しよう！</tspan></text>
    <text id="お友達と一緒に参加もできます_代表者様のみ受付をお願いします_" data-name="お友達と一緒に参加もできます！
（ 代表者様のみ受付をお願いします。）" transform="translate(188 1581)" fill="#323232" font-size="14" font-family="HiraginoSans-W3, Hiragino Sans"><tspan x="-104.65" y="0">お友達と一緒に参加もできます！</tspan><tspan x="-127.631" y="24">（ 代表者様のみ受付をお願いします。）</tspan></text>
    <path id="iconmonstr-user-30_2_" data-name="iconmonstr-user-30 (2)" d="M123.891,88.607h-6.87c0-10.684.413-12.219-6.058-13.72-9.9-2.285-19.254-4.44-22.669-11.9-1.239-2.726-2.072-7.214,1.067-13.128,7.029-13.279,8.791-24.665,4.833-31.239-4.626-7.676-18.635-7.71-23.3.117C66.926,25.4,68.716,36.723,75.8,49.8c3.2,5.893,2.4,10.395,1.157,13.135-3.373,7.5-12.639,9.638-22.455,11.9-6.76,1.563-6.333,2.995-6.333,13.782h-6.85L41.3,84.319c0-8.667.688-13.665,10.932-16.033,11.579-2.678,23.02-5.067,17.52-15.207C53.468,23.031,65.1,6,82.594,6c17.155,0,29.1,16.4,12.852,47.079-5.335,10.078,5.672,12.474,17.52,15.207,10.257,2.368,10.939,7.38,10.939,16.06ZM157,73.366c-8.873-2.051-17.134-3.848-13.135-11.407,12.185-23.006,3.235-35.308-9.638-35.308-8.708,0-15.475,5.624-15.475,16.005,0,8.736,3.951,14.973,6.223,20.136h7.214c-1.17-5.163-10.092-17.637-5.273-25.718,2.836-4.764,11.73-4.771,14.553-.083,2.616,4.344,1.246,12.474-3.676,21.76-2.671,5.046-1.928,8.956-.833,11.345,2.1,4.585,6.726,6.794,11.957,8.316,10.374,3.036,9.417.289,9.417,10.188H165.2l.014-3.187c0-6.505-.509-10.271-8.213-12.047ZM.014,88.607H6.877c0-9.9-.957-7.152,9.417-10.188,5.239-1.521,9.865-3.731,11.957-8.316,1.095-2.4,1.838-6.3-.833-11.345C22.5,49.472,21.127,41.342,23.743,37c2.822-4.695,11.716-4.688,14.553.083,4.819,8.089-4.1,20.555-5.273,25.718h7.214c2.272-5.163,6.223-11.4,6.223-20.136.007-10.388-6.76-16.012-15.468-16.012-12.873,0-21.822,12.3-9.638,35.308,4,7.565-4.261,9.355-13.135,11.407C.509,75.142,0,78.908,0,85.42l.014,3.187Z" transform="translate(102.785 1681.79)"/>
    <text id="_2" data-name="２" transform="translate(83 1699)" fill="#f52f7b" font-size="51" font-family="HannotateSC-W7, Hannotate SC"><tspan x="-25.5" y="0">２</tspan></text>
    <text id="年齢が近い人と_マッチングします_" data-name="年齢が近い人と、
マッチングします！" transform="translate(191 1830)" fill="#323232" font-size="16" font-family="HiraginoSans-W5, Hiragino Sans"><tspan x="-64" y="0">年齢が近い人と、</tspan><tspan x="-71.68" y="27">マッチングします！</tspan></text>
    <text id="マッチが完了したら_開始時間_注意事項等を運営からお送りします_" data-name="マッチが完了したら、開始時間、
   注意事項等を運営からお送りします。  " transform="translate(191 1903)" fill="#323232" font-size="14" font-family="HiraginoSans-W3, Hiragino Sans"><tspan x="-105" y="0">マッチが完了したら、開始時間、</tspan><tspan x="-127.624" y="24" xml:space="preserve">  </tspan><tspan y="24" font-size="7"> </tspan><tspan y="24">注意事項等を運営からお送りします。 </tspan><tspan y="24" font-size="7"> </tspan></text>
    <g id="コンポーネント_6_6" data-name="コンポーネント 6 – 6" transform="translate(112.957 2007.419)">
      <path id="iconmonstr-party-14" d="M93.007,87.93A17.958,17.958,0,0,0,115.74,99.1l.126-.042a17.917,17.917,0,0,0,11.088-22.769c-1.118-3.265-2.542-6.8-4.157-10.508H87.11a209.1,209.1,0,0,0,5.9,22.147m13.54-55.214-24.228,8.3c1.094,6.2,2.267,12.578,3.529,18.786h34.246c-3.917-8.4-8.642-17.583-13.546-27.087m2.943-7.332c9.115,17.691,18.457,35.376,23.122,48.965a23.732,23.732,0,0,1-12.129,29.15l7.243,21.106c1.74,4.856,7.907,5.538,14.306,4.832l1.507,4.4-28.277,9.7-1.627-4.713c5.4-2.865,10.1-7.267,8.433-12.285l-7.225-21.052a23.809,23.809,0,0,1-27.488-15.61c-4.731-13.78-8.4-33.289-11.818-52.852L109.49,25.383Zm-53.061,40.4H20.741c-1.615,3.708-3.038,7.243-4.157,10.508A17.922,17.922,0,0,0,27.673,99.061l.126.042A17.953,17.953,0,0,0,50.532,87.93a206.255,206.255,0,0,0,5.9-22.147M23.445,59.8H57.691c1.262-6.208,2.434-12.584,3.535-18.786L37,32.716c-4.91,9.5-9.635,18.69-13.552,27.087M68,37.022c-3.415,19.563-7.087,39.072-11.818,52.852A23.809,23.809,0,0,1,28.7,105.484l-7.225,21.052c-1.663,5.018,3.032,9.42,8.433,12.285l-1.621,4.713L0,133.833l1.507-4.4c6.4.706,12.572.024,14.306-4.832L23.056,103.5a23.738,23.738,0,0,1-12.129-29.15C15.592,60.76,24.934,43.074,34.055,25.383L68,37.022Zm42.643,46.716a4.486,4.486,0,1,1-4.486,4.486,4.487,4.487,0,0,1,4.486-4.486M23.923,85.221a4.486,4.486,0,1,0,4.486-4.486,4.487,4.487,0,0,0-4.486,4.486M43.361,71.764a4.486,4.486,0,1,1-4.486,4.486,4.491,4.491,0,0,1,4.486-4.486m62.8-2.984a4.489,4.489,0,1,1-4.486,4.492,4.488,4.488,0,0,1,4.486-4.492M74.766,21.071V2.991a2.987,2.987,0,1,0-5.975,0v18.08a2.987,2.987,0,1,0,5.975,0M86.32,23.834,96.135,7.148A2.987,2.987,0,1,0,90.991,4.11L81.165,20.8a2.992,2.992,0,0,0,5.155,3.038M59.1,25.306a3.012,3.012,0,0,1-2.584-1.471L46.692,7.148A2.992,2.992,0,0,1,51.847,4.11L61.674,20.8a3,3,0,0,1-1.065,4.1,2.958,2.958,0,0,1-1.513.413" transform="translate(0 -0.001)" fill="#15182f" fill-rule="evenodd"/>
    </g>
    <text id="_3" data-name="３" transform="translate(85 2024)" fill="#f52f7b" font-size="54" font-family="HannotateSC-W7, Hannotate SC"><tspan x="-27" y="0">３</tspan></text>
    <text id="時間になったら_ズムコンスタート_" data-name="時間になったら、
ズムコンスタート！" transform="translate(191 2211)" fill="#323232" font-size="16" font-family="HiraginoSans-W5, Hiragino Sans"><tspan x="-64" y="0">時間になったら、</tspan><tspan x="-71.68" y="27">ズムコンスタート！</tspan></text>
    <text id="開始時間になったら_リンクを_開いて合コン開始_約30分間お楽しみ下さい_" data-name="開始時間になったら、リンクを
 開いて合コン開始。
約30分間お楽しみ下さい。" transform="translate(191 2284)" fill="#323232" font-size="14" font-family="HiraginoSans-W3, Hiragino Sans"><tspan x="-98" y="0">開始時間になったら、リンクを</tspan><tspan x="-65.051" y="24" xml:space="preserve"> 開いて合コン開始。</tspan><tspan x="-86.198" y="48">約30分間お楽しみ下さい。</tspan></text>
    <rect id="長方形_68" data-name="長方形 68" width="40" height="79" transform="translate(306 1171)" fill="#fff"/>
    <rect id="長方形_66" data-name="長方形 66" width="14" height="110" transform="translate(0 2069)" fill="#fff"/>
    <rect id="長方形_74" data-name="長方形 74" width="14" height="110" transform="translate(361 2049)" fill="#fff"/>
  </g>
</svg>
