<svg xmlns="http://www.w3.org/2000/svg" width="908" height="481.5" viewBox="0 0 908 481.5">
  <g id="グループ_31" data-name="グループ 31" transform="translate(-149 -1175)">
    <g id="グループ_21" data-name="グループ 21" transform="translate(0 28)">
      <text id="How_to" data-name="How to" transform="translate(506 1187)" fill="#f52f7b" font-size="45" font-family="HiraginoSans-W6, Hiragino Sans" letter-spacing="0.08em"><tspan x="0" y="0">How to</tspan></text>
      <g id="グループ_14" data-name="グループ 14" transform="translate(-11312 -2528)">
        <text id="ズムコン" transform="matrix(0.998, -0.07, 0.07, 0.998, 11777.489, 3772.653)" fill="#323232" font-size="32" font-family="TsukuARdGothic-Bold, Tsukushi A Round Gothic" font-weight="700"><tspan x="0" y="0">ズムコン</tspan></text>
        <text id="の楽しみ方" transform="translate(11908 3767)" fill="#323232" font-size="28" font-family="HiraginoSans-W6, Hiragino Sans"><tspan x="0" y="0">の楽しみ方</tspan></text>
      </g>
    </g>
    <g id="グループ_19" data-name="グループ 19" transform="translate(-25)">
      <g id="グループ_15" data-name="グループ 15" transform="translate(0 1058)">
        <path id="iconmonstr-note-31" d="M23.727,54.545H69.182v4.545H23.727ZM59.255,40.909H23.727v4.545H64.85A29.758,29.758,0,0,1,59.255,40.909ZM23.727,31.818H53.273a29.419,29.419,0,0,1-1.45-4.545h-28.1v4.545ZM82.818,49.886V61.559c0,18.668-27.273,11.168-27.273,11.168S62.445,100,43.555,100H10.091V9.091H53.273A29.551,29.551,0,0,1,59.255,0H1V109.091H47.314c14.377,0,44.6-32.832,44.6-43.7V47.727A29.43,29.43,0,0,1,82.818,49.886ZM101,20.455A20.455,20.455,0,1,1,80.545,0,20.456,20.456,0,0,1,101,20.455Zm-9.8-4.009-3.164-3.164-9.618,9.859-4.509-4.277-3.164,3.168,7.673,7.441L91.2,16.445Z" transform="translate(264 326)"/>
        <text id="_" data-name="１" transform="translate(225 309)" fill="#f52f7b" font-size="50" font-family="HannotateSC-W7, Hannotate SC"><tspan x="-25" y="0">１</tspan></text>
      </g>
      <text id="プランを決めて_公式LINEから受付しよう_" data-name="プランを決めて、
公式LINEから受付しよう！" transform="translate(300 1565)" fill="#323232" font-size="18" font-family="HiraginoSans-W5, Hiragino Sans"><tspan x="-71.64" y="0">プランを決めて、</tspan><tspan x="-111.321" y="31">公式LINEから受付しよう！</tspan></text>
      <text id="お友達と一緒に参加もできます_代表者様のみ受付をお願いします_" data-name="お友達と一緒に参加もできます！
（代表者様のみ受付をお願いします。）" transform="translate(300 1630)" fill="#323232" font-size="14" font-family="HiraginoSans-W3, Hiragino Sans"><tspan x="-104.65" y="0">お友達と一緒に参加もできます！</tspan><tspan x="-125.3" y="24">（代表者様のみ受付をお願いします。）</tspan></text>
    </g>
    <g id="グループ_18" data-name="グループ 18" transform="translate(-17 -2)">
      <g id="グループ_16" data-name="グループ 16" transform="translate(13 1058)">
        <path id="iconmonstr-user-30_2_" data-name="iconmonstr-user-30 (2)" d="M134.978,96h-7.485c0-11.64.45-13.312-6.6-14.947-10.785-2.49-20.978-4.838-24.7-12.968-1.35-2.97-2.257-7.86,1.162-14.3,7.658-14.468,9.578-26.873,5.265-34.035-5.04-8.363-20.3-8.4-25.388.127-4.32,7.26-2.37,19.6,5.348,33.84,3.488,6.42,2.61,11.325,1.26,14.31-3.675,8.167-13.77,10.5-24.465,12.96-7.365,1.7-6.9,3.263-6.9,15.015H45.015L45,91.328c0-9.443.75-14.887,11.91-17.468C69.525,70.943,81.99,68.34,76,57.292,58.253,24.555,70.928,6,89.985,6c18.69,0,31.7,17.873,14,51.292-5.812,10.98,6.18,13.59,19.088,16.568,11.175,2.58,11.918,8.04,11.918,17.5Zm36.075-16.6c-9.668-2.235-18.668-4.193-14.31-12.427C170.018,41.9,160.268,28.5,146.243,28.5c-9.488,0-16.86,6.128-16.86,17.438,0,9.518,4.3,16.313,6.78,21.938h7.86c-1.275-5.625-11-19.215-5.745-28.02,3.09-5.19,12.78-5.2,15.855-.09,2.85,4.732,1.358,13.59-4,23.708-2.91,5.5-2.1,9.757-.908,12.36,2.287,4.995,7.327,7.4,13.027,9.06,11.3,3.308,10.26.315,10.26,11.1h7.477L180,92.52c0-7.087-.555-11.19-8.947-13.125ZM.015,96H7.492c0-10.785-1.043-7.792,10.26-11.1C23.46,83.243,28.5,80.835,30.78,75.84c1.193-2.61,2-6.862-.908-12.36-5.362-10.117-6.855-18.975-4-23.707,3.075-5.115,12.765-5.108,15.855.09,5.25,8.813-4.47,22.4-5.745,28.02h7.86c2.475-5.625,6.78-12.42,6.78-21.938C50.625,34.627,43.253,28.5,33.765,28.5c-14.025,0-23.775,13.4-10.5,38.468,4.358,8.242-4.642,10.192-14.31,12.427C.555,81.33,0,85.433,0,92.527L.015,96Z" transform="translate(510 329.922)"/>
        <text id="_2" data-name="２" transform="translate(510 309)" fill="#f52f7b" font-size="50" font-family="HannotateSC-W7, Hannotate SC"><tspan x="-25" y="0">２</tspan></text>
      </g>
      <text id="年齢が近い人と_マッチングします_" data-name="年齢が近い人と、
マッチングします！" transform="translate(617 1565)" fill="#323232" font-size="18" font-family="HiraginoSans-W5, Hiragino Sans"><tspan x="-72" y="0">年齢が近い人と、</tspan><tspan x="-80.64" y="31">マッチングします！</tspan></text>
      <text id="マッチが完了したら_開始時間_注意事項等を運営からお送りします_" data-name="マッチが完了したら、開始時間、
 注意事項等を運営からお送りします。" transform="translate(617 1630)" fill="#323232" font-size="14" font-family="HiraginoSans-W3, Hiragino Sans"><tspan x="-105" y="0">マッチが完了したら、開始時間、</tspan><tspan x="-120.631" y="24" xml:space="preserve"> 注意事項等を運営からお送りします。</tspan></text>
    </g>
    <g id="グループ_20" data-name="グループ 20" transform="translate(-13)">
      <g id="グループ_17" data-name="グループ 17" transform="translate(26 1058)">
        <g id="コンポーネント_6_6" data-name="コンポーネント 6 – 6" transform="translate(927 408)">
          <path id="iconmonstr-party-14" d="M84.235,79.637a16.264,16.264,0,0,0,20.589,10.118l.114-.038A16.227,16.227,0,0,0,114.98,69.1c-1.013-2.957-2.3-6.159-3.765-9.517H78.894a189.379,189.379,0,0,0,5.341,20.058M96.5,29.63,74.555,37.149c.991,5.617,2.053,11.391,3.2,17.014h31.016C105.219,46.557,100.94,38.237,96.5,29.63m2.665-6.641c8.255,16.023,16.716,32.04,20.941,44.346a21.493,21.493,0,0,1-10.985,26.4l6.56,19.115c1.576,4.4,7.161,5.016,12.957,4.377L130,121.21,104.39,130l-1.473-4.268c4.891-2.595,9.143-6.581,7.637-11.126l-6.543-19.067A21.563,21.563,0,0,1,79.116,81.4c-4.285-12.48-7.61-30.149-10.7-47.867l30.75-10.541ZM51.106,59.579H18.785c-1.463,3.358-2.752,6.56-3.765,9.517A16.232,16.232,0,0,0,25.063,89.717l.114.038A16.26,16.26,0,0,0,45.765,79.637a186.8,186.8,0,0,0,5.341-20.058M21.233,54.162H52.249c1.143-5.623,2.2-11.4,3.2-17.014L33.507,29.63c-4.447,8.607-8.726,16.927-12.274,24.532M61.588,33.53c-3.093,17.718-6.419,35.387-10.7,47.867A21.563,21.563,0,0,1,25.989,95.535L19.446,114.6c-1.506,4.545,2.746,8.531,7.637,11.126L25.615,130,0,121.21l1.365-3.981c5.8.639,11.386.022,12.957-4.377l6.56-19.115A21.5,21.5,0,0,1,9.9,67.336c4.225-12.307,12.686-28.324,20.946-44.346L61.588,33.53Zm38.621,42.31A4.062,4.062,0,1,1,96.146,79.9a4.064,4.064,0,0,1,4.063-4.062M21.667,77.183a4.062,4.062,0,1,0,4.062-4.062,4.064,4.064,0,0,0-4.062,4.063M39.271,65a4.063,4.063,0,1,1-4.062,4.063A4.067,4.067,0,0,1,39.271,65m56.875-2.7a4.065,4.065,0,1,1-4.062,4.068,4.065,4.065,0,0,1,4.062-4.068M67.714,19.084V2.709a2.706,2.706,0,1,0-5.411,0V19.084a2.706,2.706,0,1,0,5.411,0m10.465,2.5L87.068,6.474a2.705,2.705,0,1,0-4.658-2.752l-8.9,15.113a2.71,2.71,0,0,0,4.669,2.752M53.522,22.919a2.728,2.728,0,0,1-2.34-1.332L42.288,6.474a2.71,2.71,0,0,1,4.669-2.752l8.9,15.112a2.713,2.713,0,0,1-.964,3.71,2.679,2.679,0,0,1-1.37.374" transform="translate(-92.038 -92.035)" fill="#15182f" fill-rule="evenodd"/>
        </g>
        <text id="_3" data-name="３" transform="translate(835 309)" fill="#f52f7b" font-size="50" font-family="HannotateSC-W7, Hannotate SC"><tspan x="-25" y="0">３</tspan></text>
      </g>
      <text id="時間になったら_ズムコンスタート_" data-name="時間になったら、
ズムコンスタート！" transform="translate(934 1565)" fill="#323232" font-size="18" font-family="HiraginoSans-W5, Hiragino Sans"><tspan x="-72" y="0">時間になったら、</tspan><tspan x="-80.64" y="31">ズムコンスタート！</tspan></text>
      <text id="開始時間になったら_リンクを開いて_合コン開始_約30分間お楽しみ下さい_" data-name="開始時間になったら、リンクを開いて   
合コン開始。約30分間お楽しみ下さい。" transform="translate(941 1630)" fill="#323232" font-size="14" font-family="HiraginoSans-W3, Hiragino Sans"><tspan x="-125.713" y="0" xml:space="preserve">開始時間になったら、リンクを開いて   </tspan><tspan x="-128.198" y="24">合コン開始。約30分間お楽しみ下さい。</tspan></text>
    </g>
    <line id="線_23" data-name="線 23" y1="320" transform="translate(439.5 1333.5)" fill="none" stroke="rgba(21,24,47,0.25)" stroke-width="2.5"/>
    <line id="線_24" data-name="線 24" y1="320" transform="translate(760.5 1336.5)" fill="none" stroke="rgba(21,24,47,0.25)" stroke-width="2.5"/>
  </g>
</svg>
