<svg xmlns="http://www.w3.org/2000/svg" width="454" height="153.958" viewBox="0 0 454 153.958">
  <g id="グループ_13" data-name="グループ 13" transform="translate(-653 -756.042)">
    <g id="Layer_2" data-name="Layer 2" transform="matrix(0.883, 0.469, -0.469, 0.883, 1074.489, 757.954)">
      <g id="heart">
        <rect id="長方形_63" data-name="長方形 63" width="24" height="24" fill="#f52f7b" opacity="0"/>
        <path id="パス_16" data-name="パス 16" d="M19.358,33.507a1.736,1.736,0,0,1-1.232-.5L4.639,19.5A9.082,9.082,0,1,1,17.484,6.655L19.358,8.53l1.875-1.875A9.082,9.082,0,1,1,34.077,19.5L20.591,33a1.736,1.736,0,0,1-1.232.5Zm-8.3-26.036A5.554,5.554,0,0,0,7.1,9.1a5.624,5.624,0,0,0,0,7.932L19.358,29.307,31.612,17.035a5.624,5.624,0,0,0,0-7.932,5.763,5.763,0,0,0-7.915,0l-3.107,3.124a1.736,1.736,0,0,1-2.465,0L15.019,9.1a5.554,5.554,0,0,0-3.957-1.632Z" transform="translate(-7 -3.507)" fill="#f52f7b"/>
      </g>
    </g>
    <g id="グループ_11" data-name="グループ 11" transform="translate(3 -8)">
      <path id="iconmonstr-party-13" d="M57.615,52.938a12,12,0,0,1-13.8-7.854c-2.373-6.915-4.215-16.7-5.925-26.511l17.025-5.841c4.575,8.874,9.261,17.745,11.6,24.564a12,12,0,0,1-6.066,14.667L64.1,62.589c.87,2.442,3.966,2.778,7.176,2.427L72,67.131,57.813,72l-.783-2.277c2.709-1.434,5.064-3.642,4.23-6.159L57.615,52.938Zm-46.068-.975A12,12,0,0,1,5.481,37.3c2.34-6.819,7.026-15.69,11.6-24.564l17.025,5.841c-1.71,9.813-3.552,19.6-5.925,26.511a12,12,0,0,1-13.8,7.854L10.77,63.474C9.936,65.991,12.291,68.2,15,69.633L14.187,72,0,67.131l.756-2.205c3.21.354,6.306.015,7.176-2.424ZM56.25,43.5A2.25,2.25,0,1,1,54,45.75,2.251,2.251,0,0,1,56.25,43.5Zm-45-3A2.25,2.25,0,1,1,9,42.75,2.251,2.251,0,0,1,11.25,40.5Zm7.5-4.5a2.25,2.25,0,1,1-2.25,2.25A2.251,2.251,0,0,1,18.75,36ZM54,35.679a2.25,2.25,0,1,1-2.25,2.25A2.251,2.251,0,0,1,54,35.679ZM59.817,30c-1.989-4.575-4.323-9.036-6.534-13.536L41.532,20.5c.642,3.177,1.23,6.363,1.908,9.5ZM28.56,30c.678-3.141,1.266-6.327,1.908-9.5L18.717,16.464c-2.211,4.5-4.545,8.961-6.534,13.536ZM43.305,11.955l4.926-8.37a1.5,1.5,0,1,0-2.583-1.524l-4.929,8.37a1.5,1.5,0,0,0,2.586,1.524Zm-13.656.738a1.5,1.5,0,0,1-1.293-.738l-4.929-8.37a1.5,1.5,0,0,1,2.586-1.524l4.929,8.37a1.5,1.5,0,0,1-1.293,2.262Zm7.863-2.124V1.5a1.5,1.5,0,1,0-3,0v9.069a1.5,1.5,0,0,0,3,0Z" transform="translate(841 835)" fill-rule="evenodd"/>
      <g id="グループ_10" data-name="グループ 10">
        <g id="グループ_8" data-name="グループ 8" transform="translate(-10771 -2015)">
          <path id="iconmonstr-user-4" d="M60.736,56.314c-8.654-1.986-19.187-7.108-16.083-13.776,2,3.281,8.167,5.183,12.977,2.345C43.784,41.372,64.438,17.259,46.339,3.742A19.02,19.02,0,0,0,34.931,0,18.416,18.416,0,0,0,23.664,3.742C5.562,17.259,26.219,41.372,12.37,44.884c4.819,2.841,11,.852,12.983-2.345,3.1,6.671-7.441,11.793-16.083,13.776C.58,58.307,0,63.513,0,67.993L.015,70H5.836c0-5.717-.093-6.9,4.74-8,4.763-1.094,16.241-4.463,19.995-12.14,2.949-6.029-.058-10.063-4.457-19.607a6.59,6.59,0,0,1-2.92,4.7c-.143-2.018-.438-3.984-.7-5.737C21.074,19.814,20.63,13.286,27.225,8.36a13.231,13.231,0,0,1,15.625.055c6.522,4.871,6.079,11.4,4.661,20.805-.26,1.724-.548,3.655-.694,5.638a5.922,5.922,0,0,1-2.844-4.679c-4.477,9.614-7.5,13.618-4.539,19.68C43.186,57.537,54.669,60.908,59.43,62c4.871,1.12,4.74,2.333,4.74,8h5.816L70,67.982c0-4.48-.58-9.678-9.264-11.667Z" transform="translate(11766 2835.88)"/>
          <path id="iconmonstr-user-4-2" data-name="iconmonstr-user-4" d="M60.736,56.314c-8.654-1.986-19.187-7.108-16.083-13.776,2,3.281,8.167,5.183,12.977,2.345C43.784,41.372,64.438,17.259,46.339,3.742A19.02,19.02,0,0,0,34.931,0,18.416,18.416,0,0,0,23.664,3.742C5.562,17.259,26.219,41.372,12.37,44.884c4.819,2.841,11,.852,12.983-2.345,3.1,6.671-7.441,11.793-16.083,13.776C.58,58.307,0,63.513,0,67.993L.015,70H5.836c0-5.717-.093-6.9,4.74-8,4.763-1.094,16.241-4.463,19.995-12.14,2.949-6.029-.058-10.063-4.457-19.607a6.59,6.59,0,0,1-2.92,4.7c-.143-2.018-.438-3.984-.7-5.737C21.074,19.814,20.63,13.286,27.225,8.36a13.231,13.231,0,0,1,15.625.055c6.522,4.871,6.079,11.4,4.661,20.805-.26,1.724-.548,3.655-.694,5.638a5.922,5.922,0,0,1-2.844-4.679c-4.477,9.614-7.5,13.618-4.539,19.68C43.186,57.537,54.669,60.908,59.43,62c4.871,1.12,4.74,2.333,4.74,8h5.816L70,67.982c0-4.48-.58-9.678-9.264-11.667Z" transform="translate(11727 2808.88)"/>
          <path id="iconmonstr-user-4-3" data-name="iconmonstr-user-4" d="M60.736,56.314c-8.654-1.986-19.187-7.108-16.083-13.776,2,3.281,8.167,5.183,12.977,2.345C43.784,41.372,64.438,17.259,46.339,3.742A19.02,19.02,0,0,0,34.931,0,18.416,18.416,0,0,0,23.664,3.742C5.562,17.259,26.219,41.372,12.37,44.884c4.819,2.841,11,.852,12.983-2.345,3.1,6.671-7.441,11.793-16.083,13.776C.58,58.307,0,63.513,0,67.993L.015,70H5.836c0-5.717-.093-6.9,4.74-8,4.763-1.094,16.241-4.463,19.995-12.14,2.949-6.029-.058-10.063-4.457-19.607a6.59,6.59,0,0,1-2.92,4.7c-.143-2.018-.438-3.984-.7-5.737C21.074,19.814,20.63,13.286,27.225,8.36a13.231,13.231,0,0,1,15.625.055c6.522,4.871,6.079,11.4,4.661,20.805-.26,1.724-.548,3.655-.694,5.638a5.922,5.922,0,0,1-2.844-4.679c-4.477,9.614-7.5,13.618-4.539,19.68C43.186,57.537,54.669,60.908,59.43,62c4.871,1.12,4.74,2.333,4.74,8h5.816L70,67.982c0-4.48-.58-9.678-9.264-11.667Z" transform="translate(11805 2862.88)"/>
        </g>
        <g id="グループ_9" data-name="グループ 9" transform="translate(-11151 -2188)">
          <path id="iconmonstr-user-15" d="M69.985,70H64.167c0-9.053.347-10.354-5.136-11.626-8.391-1.937-16.316-3.765-19.2-10.086-1.053-2.307-1.753-6.11.9-11.124,5.956-11.25,7.449-20.9,4.092-26.472-3.911-6.5-15.788-6.536-19.734.1-3.366,5.65-1.852,15.245,4.153,26.323,2.713,4.993,2.033,8.808.986,11.127C27.364,54.594,19.51,56.405,11.2,58.322,5.469,59.646,5.833,60.859,5.833,70H.015L0,66.38c0-7.35.58-11.594,9.269-13.6,9.815-2.266,19.507-4.3,14.846-12.886C10.31,14.435,20.178,0,35,0,49.534,0,59.649,13.9,45.885,39.894c-4.524,8.54,4.812,10.57,14.846,12.886C69.42,54.787,70,59.03,70,66.38L69.985,70ZM30.675,52.5l2.654,5.833h3.4L39.407,52.5H30.675ZM39.41,70l-2.053-8.75h-4.71L30.593,70H39.41Z" transform="translate(11801 3036)"/>
          <path id="iconmonstr-user-15-2" data-name="iconmonstr-user-15" d="M69.985,70H64.167c0-9.053.347-10.354-5.136-11.626-8.391-1.937-16.316-3.765-19.2-10.086-1.053-2.307-1.753-6.11.9-11.124,5.956-11.25,7.449-20.9,4.092-26.472-3.911-6.5-15.788-6.536-19.734.1-3.366,5.65-1.852,15.245,4.153,26.323,2.713,4.993,2.033,8.808.986,11.127C27.364,54.594,19.51,56.405,11.2,58.322,5.469,59.646,5.833,60.859,5.833,70H.015L0,66.38c0-7.35.58-11.594,9.269-13.6,9.815-2.266,19.507-4.3,14.846-12.886C10.31,14.435,20.178,0,35,0,49.534,0,59.649,13.9,45.885,39.894c-4.524,8.54,4.812,10.57,14.846,12.886C69.42,54.787,70,59.03,70,66.38L69.985,70ZM30.675,52.5l2.654,5.833h3.4L39.407,52.5H30.675ZM39.41,70l-2.053-8.75h-4.71L30.593,70H39.41Z" transform="translate(11840 3009)"/>
          <path id="iconmonstr-user-15-3" data-name="iconmonstr-user-15" d="M69.985,70H64.167c0-9.053.347-10.354-5.136-11.626-8.391-1.937-16.316-3.765-19.2-10.086-1.053-2.307-1.753-6.11.9-11.124,5.956-11.25,7.449-20.9,4.092-26.472-3.911-6.5-15.788-6.536-19.734.1-3.366,5.65-1.852,15.245,4.153,26.323,2.713,4.993,2.033,8.808.986,11.127C27.364,54.594,19.51,56.405,11.2,58.322,5.469,59.646,5.833,60.859,5.833,70H.015L0,66.38c0-7.35.58-11.594,9.269-13.6,9.815-2.266,19.507-4.3,14.846-12.886C10.31,14.435,20.178,0,35,0,49.534,0,59.649,13.9,45.885,39.894c-4.524,8.54,4.812,10.57,14.846,12.886C69.42,54.787,70,59.03,70,66.38L69.985,70ZM30.675,52.5l2.654,5.833h3.4L39.407,52.5H30.675ZM39.41,70l-2.053-8.75h-4.71L30.593,70H39.41Z" transform="translate(11879 2982)"/>
        </g>
      </g>
    </g>
  </g>
</svg>
