<svg xmlns="http://www.w3.org/2000/svg" width="283" height="103" viewBox="0 0 283 103">
  <g id="グループ_123" data-name="グループ 123" transform="translate(-47 -1185)">
    <g id="グループ_119" data-name="グループ 119" transform="translate(-3 736)">
      <text id="サービス開始約1.5ヶ月で_応募件数5000件突破_" data-name="サービス開始約1.5ヶ月で、
応募件数5000件突破 !!  " transform="translate(209 516)" fill="#323232" font-size="18" font-family="HiraginoSans-W6, Hiragino Sans" letter-spacing="0.08em"><tspan x="-123.336" y="0">サービス開始約1.5ヶ月で、</tspan><tspan x="-120.897" y="33">応募件数</tspan><tspan y="33" fill="#f52f7b" font-size="21">5000件</tspan><tspan y="33" xml:space="preserve">突破 !!  </tspan></text>
      <path id="iconmonstr-check-mark-6" d="M23.334,11.96a2.327,2.327,0,0,1-.393-2.727A2.326,2.326,0,0,0,21.4,5.869a2.324,2.324,0,0,1-1.8-2.081,2.326,2.326,0,0,0-3.112-2,2.325,2.325,0,0,1-2.642-.776,2.327,2.327,0,0,0-3.7,0,2.318,2.318,0,0,1-2.639.777,2.325,2.325,0,0,0-3.111,2,2.324,2.324,0,0,1-1.8,2.081A2.324,2.324,0,0,0,1.059,9.233,2.328,2.328,0,0,1,.667,11.96a2.323,2.323,0,0,0,.526,3.66,2.324,2.324,0,0,1,1.144,2.505,2.325,2.325,0,0,0,2.421,2.794,2.326,2.326,0,0,1,2.317,1.489,2.326,2.326,0,0,0,3.548,1.042,2.322,2.322,0,0,1,2.754,0,2.327,2.327,0,0,0,3.549-1.042,2.324,2.324,0,0,1,2.316-1.489,2.325,2.325,0,0,0,2.421-2.794,2.325,2.325,0,0,1,1.145-2.505,2.325,2.325,0,0,0,.526-3.66ZM10.75,17.39l-4.5-4.364,1.857-1.857,2.643,2.506,5.643-5.784L18.25,9.748Z" transform="translate(50.001 497.902)" fill="#f52f7b"/>
    </g>
    <g id="グループ_120" data-name="グループ 120" transform="translate(-3 687)">
      <text id="毎日100人以上が申込_" data-name="毎日100人以上が申込 !!" transform="translate(210 516)" fill="#323232" font-size="18" font-family="HiraginoSans-W6, Hiragino Sans" letter-spacing="0.08em"><tspan x="-118.107" y="0">毎日</tspan><tspan y="0" fill="#f52f7b" font-size="21">100人以上</tspan><tspan y="0">が申込 !!</tspan></text>
      <path id="iconmonstr-check-mark-6-2" data-name="iconmonstr-check-mark-6" d="M23.334,11.96a2.327,2.327,0,0,1-.393-2.727A2.326,2.326,0,0,0,21.4,5.869a2.324,2.324,0,0,1-1.8-2.081,2.326,2.326,0,0,0-3.112-2,2.325,2.325,0,0,1-2.642-.776,2.327,2.327,0,0,0-3.7,0,2.318,2.318,0,0,1-2.639.777,2.325,2.325,0,0,0-3.111,2,2.324,2.324,0,0,1-1.8,2.081A2.324,2.324,0,0,0,1.059,9.233,2.328,2.328,0,0,1,.667,11.96a2.323,2.323,0,0,0,.526,3.66,2.324,2.324,0,0,1,1.144,2.505,2.325,2.325,0,0,0,2.421,2.794,2.326,2.326,0,0,1,2.317,1.489,2.326,2.326,0,0,0,3.548,1.042,2.322,2.322,0,0,1,2.754,0,2.327,2.327,0,0,0,3.549-1.042,2.324,2.324,0,0,1,2.316-1.489,2.325,2.325,0,0,0,2.421-2.794,2.325,2.325,0,0,1,1.145-2.505,2.325,2.325,0,0,0,.526-3.66ZM10.75,17.39l-4.5-4.364,1.857-1.857,2.643,2.506,5.643-5.784L18.25,9.748Z" transform="translate(50.001 497.902)" fill="#f52f7b"/>
    </g>
  </g>
</svg>
