<svg xmlns="http://www.w3.org/2000/svg" width="103.748" height="23.352" viewBox="0 0 103.748 23.352">
  <g id="logo" transform="translate(-146.328 604.031)">
    <path id="パス_31" data-name="パス 31" d="M268.943-603.657q-1.3,1.023.818,3.046c1.046,1,1.985,1.44,2.773,1.288,1.819-.349,1-2.8-1.409-4.289A2.032,2.032,0,0,0,268.943-603.657Z" transform="translate(-103.616 -0.066)" fill="#f52f7b"/>
    <path id="パス_32" data-name="パス 32" d="M722.6-603.89a5.452,5.452,0,0,0-1.909,2.167,39.083,39.083,0,0,1-7.411,9.229,18.3,18.3,0,0,1-4.486,3.137c-1.515.758-2.106,1.258-2.334,1.925a1.989,1.989,0,0,0,1.394,2.516c1.485.394,4.789-1.046,7.593-3.289a25.085,25.085,0,0,0,3.986-3.773,30.1,30.1,0,0,0,4.243-5.865c1.576-2.728,1.834-3.7,1.334-4.971A1.811,1.811,0,0,0,722.6-603.89Z" transform="translate(-475.169)" fill="#f52f7b"/>
    <path id="パス_33" data-name="パス 33" d="M699.157-595.447a2,2,0,0,0-1.5,1.152,1.141,1.141,0,0,0,.03,1.121c.758,1.909,5.062,3.849,7.062,3.2a1.685,1.685,0,0,0,.925-2.7C704.476-594.446,701.1-595.886,699.157-595.447Z" transform="translate(-467.663 -7.216)" fill="#f52f7b"/>
    <path id="パス_34" data-name="パス 34" d="M344.426-591.49c-.788.712-1.47,2.137-3.88,8-2.576,6.274-3.395,8.5-3.486,9.5-.061.833-.045.894.455,1.394a3.292,3.292,0,0,0,2.925.773,55.287,55.287,0,0,0,8.8-2.288c1.637-.53,3.046-.97,3.167-.97.106,0,.349.212.53.47a8.179,8.179,0,0,0,1.091,1.061,2.071,2.071,0,0,0,2.546.288c.985-.5,1.121-1.531.364-2.743a35.344,35.344,0,0,0-5.244-5.8c-1.576-1.273-3.152-.712-3.152,1.122a2.576,2.576,0,0,0,.849,1.925,2.961,2.961,0,0,1,.515.773c0,.273-6.077,1.379-6.577,1.2-.379-.152-.258-.743.773-3.44,2.819-7.456,3.531-9.4,3.531-9.714a2.6,2.6,0,0,0-.985-1.8A1.673,1.673,0,0,0,344.426-591.49Z" transform="translate(-161.807 -10.157)" fill="#f52f7b"/>
    <path id="パス_35" data-name="パス 35" d="M521.365-590.72a32.476,32.476,0,0,0-3.486.2,3.62,3.62,0,0,0-1.046,1.561,2.547,2.547,0,0,0,.455,1.97c.561.606,1.3.682,7.214.712,4.395.03,5.683.076,5.835.227a29.43,29.43,0,0,1,.333,6.517,1.077,1.077,0,0,1-.515.743,45.51,45.51,0,0,1-6.032.288c-6.3.121-6.38.136-6.9,1.167a1.877,1.877,0,0,0,.439,2.213l.485.546,6.562.046c7.547.045,7.744.015,8.881-1.091,1.394-1.379,1.546-2.394,1.288-8.532-.136-3.289-.182-3.561-.53-4.319-.53-1.106-.7-1.273-1.667-1.713C531.156-590.9,529.852-590.962,521.365-590.72Z" transform="translate(-314.317 -11.185)" fill="#f52f7b"/>
    <path id="パス_36" data-name="パス 36" d="M248.112-589.784c-.667.667-.682,1.288-.076,2.273a5.458,5.458,0,0,0,3.152,2.349,1.717,1.717,0,0,0,1.682-.621c.288-.758-.212-1.894-1.3-2.94C250.2-590.027,248.794-590.466,248.112-589.784Z" transform="translate(-85.921 -11.817)" fill="#f52f7b"/>
    <path id="パス_37" data-name="パス 37" d="M149.536-568.57c-1.758.076-1.94.121-2.576.682a1.585,1.585,0,0,0,.273,2.7c.5.3.712.318,5.471.318,3.713,0,4.94.045,4.94.182a10.962,10.962,0,0,1-1.91,3.273,29.739,29.739,0,0,1-4.88,4.546c-2.849,2.091-3.47,2.591-3.925,3.183-1.44,1.894.424,3.8,2.728,2.788a39.545,39.545,0,0,0,7.456-5.729l.879-.864.53.288a14.42,14.42,0,0,1,1.834,1.424c.712.637,1.682,1.455,2.152,1.819.47.379,1.273,1.046,1.788,1.485,1.182.985,1.7,1.258,2.455,1.273a1.779,1.779,0,0,0,1.728-2.243,6.468,6.468,0,0,0-2.243-3.258,33.45,33.45,0,0,0-4.774-3.167,5.045,5.045,0,0,1-1.031-.621,6.526,6.526,0,0,1,.894-1.606,8.094,8.094,0,0,0,1.622-3.789,2.721,2.721,0,0,0-1.334-2.273l-.7-.409-5-.03C153.158-568.6,150.294-568.585,149.536-568.57Z" transform="translate(0 -30.061)" fill="#f52f7b"/>
  </g>
</svg>
