<svg xmlns="http://www.w3.org/2000/svg" width="98.802" height="22.239" viewBox="0 0 98.802 22.239">
  <g id="logo" transform="translate(-146.328 604.031)">
    <path id="パス_31" data-name="パス 31" d="M268.92-603.671q-1.234.974.779,2.9c1,.953,1.891,1.371,2.641,1.227,1.732-.332.953-2.67-1.342-4.084A1.935,1.935,0,0,0,268.92-603.671Z" transform="translate(-104.498 -0.067)" fill="#323232"/>
    <path id="パス_32" data-name="パス 32" d="M721.831-603.9a5.193,5.193,0,0,0-1.818,2.064,37.222,37.222,0,0,1-7.057,8.789,17.432,17.432,0,0,1-4.272,2.987c-1.443.722-2.006,1.2-2.223,1.833a1.894,1.894,0,0,0,1.328,2.4c1.414.375,4.561-1,7.231-3.132a23.885,23.885,0,0,0,3.8-3.594,28.658,28.658,0,0,0,4.041-5.585c1.5-2.6,1.746-3.521,1.27-4.734A1.724,1.724,0,0,0,721.831-603.9Z" transform="translate(-479.215)" fill="#323232"/>
    <path id="パス_33" data-name="パス 33" d="M699.079-595.45a1.906,1.906,0,0,0-1.429,1.1,1.086,1.086,0,0,0,.029,1.068c.722,1.818,4.82,3.666,6.725,3.045a1.6,1.6,0,0,0,.88-2.569C704.145-594.5,700.926-595.869,699.079-595.45Z" transform="translate(-471.645 -7.277)" fill="#323232"/>
    <path id="パス_34" data-name="パス 34" d="M344.074-591.517c-.75.678-1.4,2.035-3.695,7.62-2.453,5.975-3.233,8.1-3.319,9.049-.058.794-.043.852.433,1.328a3.135,3.135,0,0,0,2.785.736,52.66,52.66,0,0,0,8.385-2.179c1.559-.505,2.9-.924,3.016-.924s.332.2.505.447a7.8,7.8,0,0,0,1.039,1.01,1.972,1.972,0,0,0,2.425.274c.938-.476,1.068-1.458.346-2.612A33.657,33.657,0,0,0,351-582.295c-1.5-1.212-3-.678-3,1.068a2.453,2.453,0,0,0,.808,1.833,2.82,2.82,0,0,1,.491.736c0,.26-5.787,1.313-6.264,1.14-.361-.144-.245-.707.736-3.276,2.684-7.1,3.363-8.948,3.363-9.251a2.479,2.479,0,0,0-.938-1.717A1.593,1.593,0,0,0,344.074-591.517Z" transform="translate(-163.184 -10.243)" fill="#323232"/>
    <path id="パス_35" data-name="パス 35" d="M521.147-590.726a30.921,30.921,0,0,0-3.319.188,3.447,3.447,0,0,0-1,1.487,2.425,2.425,0,0,0,.433,1.876c.534.577,1.241.649,6.87.678,4.185.029,5.412.072,5.556.216a28.034,28.034,0,0,1,.318,6.206,1.026,1.026,0,0,1-.491.707,43.353,43.353,0,0,1-5.744.274c-6,.115-6.076.13-6.567,1.111a1.787,1.787,0,0,0,.419,2.107l.462.52,6.249.043c7.187.043,7.375.014,8.457-1.039,1.328-1.313,1.472-2.28,1.227-8.125-.13-3.132-.173-3.392-.505-4.113-.505-1.054-.664-1.212-1.588-1.631C530.471-590.9,529.229-590.957,521.147-590.726Z" transform="translate(-316.993 -11.28)" fill="#323232"/>
    <path id="パス_36" data-name="パス 36" d="M248.087-589.8c-.635.635-.649,1.227-.072,2.165a5.2,5.2,0,0,0,3,2.237,1.636,1.636,0,0,0,1.6-.592c.274-.722-.2-1.8-1.241-2.8C250.079-590.03,248.737-590.449,248.087-589.8Z" transform="translate(-86.653 -11.918)" fill="#323232"/>
    <path id="パス_37" data-name="パス 37" d="M149.383-568.571c-1.674.072-1.847.115-2.454.649a1.51,1.51,0,0,0,.26,2.569c.476.289.678.3,5.21.3,3.536,0,4.7.043,4.7.173a10.44,10.44,0,0,1-1.818,3.117,28.325,28.325,0,0,1-4.647,4.33c-2.713,1.992-3.3,2.468-3.738,3.031-1.371,1.8.4,3.622,2.6,2.656a37.662,37.662,0,0,0,7.1-5.455l.837-.823.505.274a13.735,13.735,0,0,1,1.746,1.357c.678.606,1.6,1.385,2.049,1.732s1.212,1,1.7,1.414c1.126.938,1.616,1.2,2.338,1.212a1.694,1.694,0,0,0,1.645-2.136,6.16,6.16,0,0,0-2.136-3.1,31.857,31.857,0,0,0-4.546-3.016,4.808,4.808,0,0,1-.981-.592,6.214,6.214,0,0,1,.852-1.53,7.709,7.709,0,0,0,1.544-3.608,2.592,2.592,0,0,0-1.27-2.165l-.664-.39-4.763-.029C152.833-568.6,150.105-568.586,149.383-568.571Z" transform="translate(0 -30.317)" fill="#323232"/>
  </g>
</svg>
