<svg xmlns="http://www.w3.org/2000/svg" width="68.848" height="68.848" viewBox="0 0 68.848 68.848">
  <path id="iconmonstr-map-8" d="M34.424,0C25.393,0,17.212,7.324,17.212,16.357c0,13.431,13.721,14.851,17.212,35.279,3.491-20.428,17.212-21.848,17.212-35.279C51.636,7.324,43.458,0,34.424,0Zm0,22.949a5.737,5.737,0,1,1,5.737-5.737A5.736,5.736,0,0,1,34.424,22.949Zm34.424,45.9-19.24-6.962L34.424,68.848l-16.01-6.962L0,68.848,11.475,43.03l11.36-4.544a32.636,32.636,0,0,1,3.044,4.96L15.772,47.491l-4.948,11.13,7.665-2.9,4.32-7.708-1.822,8.732L33,61.88l1.42-5.8,1.334,5.806,11.9-5.422-1.773-8.7,4.51,8.308,7.837,2.837L53.248,47.5,42.976,43.44a32.12,32.12,0,0,1,3.047-4.966L57.557,43.03Z"/>
</svg>
