<svg xmlns="http://www.w3.org/2000/svg" width="73.333" height="80" viewBox="0 0 73.333 80">
  <path id="iconmonstr-note-31" d="M17.667,40H51v3.333H17.667ZM43.72,30H17.667v3.333H47.823A21.823,21.823,0,0,1,43.72,30ZM17.667,23.333H39.333A21.575,21.575,0,0,1,38.27,20h-20.6v3.333ZM61,36.583v8.56c0,13.69-20,8.19-20,8.19s5.06,20-8.793,20H7.667V6.667H39.333A21.671,21.671,0,0,1,43.72,0H1V80H34.963c10.543,0,32.7-24.077,32.7-32.047V35A21.582,21.582,0,0,1,61,36.583ZM74.333,15a15,15,0,1,1-15-15A15,15,0,0,1,74.333,15Zm-7.187-2.94-2.32-2.32-7.053,7.23-3.307-3.137-2.32,2.323,5.627,5.457,9.373-9.553Z" transform="translate(-1)"/>
</svg>
