<svg xmlns="http://www.w3.org/2000/svg" width="88.401" height="88.397" viewBox="0 0 88.401 88.397">
  <path id="iconmonstr-party-14" d="M57.28,54.154a11.06,11.06,0,0,0,14,6.881l.077-.026a11.035,11.035,0,0,0,6.829-14.023c-.689-2.011-1.565-4.188-2.56-6.472H53.648a128.781,128.781,0,0,0,3.632,13.64m8.339-34L50.7,25.262c.674,3.82,1.4,7.746,2.173,11.57H73.962C71.55,31.66,68.64,26,65.619,20.149m1.812-4.516c5.613,10.9,11.367,21.787,14.24,30.156A14.616,14.616,0,0,1,74.2,63.742l4.461,13c1.072,2.991,4.869,3.411,8.811,2.976l.928,2.707L70.986,88.4l-1-2.9c3.326-1.764,6.218-4.475,5.194-7.566l-4.45-12.965A14.663,14.663,0,0,1,53.8,55.351c-2.914-8.486-5.175-20.5-7.278-32.55l20.911-7.168ZM34.753,40.515H12.774c-.995,2.284-1.871,4.461-2.56,6.472a11.038,11.038,0,0,0,6.829,14.023l.077.026a11.057,11.057,0,0,0,14-6.881,127.025,127.025,0,0,0,3.632-13.64M14.439,36.831H35.53c.777-3.823,1.5-7.75,2.177-11.57L22.785,20.149C19.761,26,16.851,31.66,14.439,36.831M41.88,22.8c-2.1,12.048-4.365,24.064-7.278,32.55a14.663,14.663,0,0,1-16.929,9.614L13.223,77.93c-1.024,3.09,1.867,5.8,5.194,7.566l-1,2.9L0,82.424l.928-2.707c3.941.435,7.742.015,8.811-2.976l4.461-13A14.619,14.619,0,0,1,6.73,45.789C9.6,37.42,15.356,26.529,20.973,15.633L41.88,22.8ZM68.143,51.572a2.763,2.763,0,1,1-2.763,2.763,2.764,2.764,0,0,1,2.763-2.763m-53.409.913A2.763,2.763,0,1,0,17.5,49.723a2.764,2.764,0,0,0-2.763,2.763M26.7,44.2a2.763,2.763,0,1,1-2.763,2.763A2.766,2.766,0,0,1,26.7,44.2M65.38,42.36a2.764,2.764,0,1,1-2.763,2.766A2.764,2.764,0,0,1,65.38,42.36M46.046,12.978V1.843a1.84,1.84,0,1,0-3.68,0V12.978a1.84,1.84,0,1,0,3.68,0m7.116,1.7L59.207,4.4a1.84,1.84,0,1,0-3.168-1.871L49.987,12.808a1.843,1.843,0,0,0,3.175,1.871M36.4,15.585a1.855,1.855,0,0,1-1.591-.906L28.756,4.4a1.843,1.843,0,1,1,3.175-1.871l6.052,10.277a1.845,1.845,0,0,1-.656,2.523,1.822,1.822,0,0,1-.932.254" transform="translate(0 -0.001)" fill="#15182f" fill-rule="evenodd"/>
</svg>
