<svg xmlns="http://www.w3.org/2000/svg" width="937.573" height="559" viewBox="0 0 937.573 559">
  <g id="グループ_35" data-name="グループ 35" transform="translate(-131 -1855)">
    <g id="グループ_33" data-name="グループ 33" transform="translate(5 3)">
      <text id="_プランは_随時追加予定です_" data-name="※プランは、随時追加予定です。" transform="translate(597 2409)" fill="#323232" font-size="14" font-family="HiraginoSans-W3, Hiragino Sans"><tspan x="-104.3" y="0">※プランは、随時追加予定です。</tspan></text>
      <g id="グループ_32" data-name="グループ 32">
        <path id="iconmonstr-weather-90" d="M94.582,60.183c0,5.962-14.131,24.427-18.818,24.427-4.644,0-15.236-19.524-15.236-25.529,0-5.962,10.655-19.215,15.348-19.215,4.773.006,18.706,14.811,18.706,20.317Zm22.436,32.2c3.166,13.42-8.45,27.382-25.8,24.42-7.655,7.329-11.542,16.192-11.542,31.01H67.747c0-15.2-4.724-24.974-11.782-31.73-15.933,7.286-34.218-5.032-31.33-23.7l.062-.616a30.787,30.787,0,0,1,0-60.357l-.062-.616A30.739,30.739,0,0,1,83.249,17.781c13.95-13.549,37.815-5.272,39.232,13.562a30.762,30.762,0,0,1-5.463,61.04ZM36.367,59.719c0-6.824-.937-17.821,4.569-17.821,2.457,0,13.052-1.136,14.462-.544l5.857,3.119A18.269,18.269,0,0,0,53.7,43.112c-9.288,0-16.746,5.826-16.746,16.3,0,8.739,5.457,15.335,16.062,15.335a19.817,19.817,0,0,0,7.871-1.318l-11.657,5.88c-1.367.548-12.5-6.462-14.584-6.462-6.19-.006,1.723-6.978,1.723-13.124Zm55.8-1.087c0-8.468-9.135-8.294-18.558-8.294-9.053,0-10.931-.353-10.931,8.842,0,8.733,5.321,15.606,14.424,15.606,8.967,0,15.065-6.1,15.065-16.155Zm18.692,17.442-20.32,6.1s10.55-10.3,10.55-15.467c0-3.769,5.433-1.545.734-1.545-2.815,0-3.164.161-4.728,1.343l.665-1.934a7.5,7.5,0,0,1,4.441-1.724c2.4,0,3.418,1.343,3.418,3.036-.08,3.042-3.566,5.888-9.491,11.246v2.932l8.085-13.43,6.647,9.439Z" transform="matrix(0.819, 0.574, -0.574, 0.819, 942.492, 1899.089)" fill="#f52f7b"/>
        <text id="Plan" transform="translate(538 1892)" fill="#f52f7b" font-size="45" font-family="HiraginoSans-W6, Hiragino Sans" letter-spacing="0.08em"><tspan x="0" y="0">Plan</tspan></text>
        <g id="グループ_14" data-name="グループ 14" transform="translate(-11317 -1824)">
          <text id="ズムコン" transform="matrix(0.998, -0.07, 0.07, 0.998, 11791.489, 3773.653)" fill="#323232" font-size="32" font-family="TsukuARdGothic-Bold, Tsukushi A Round Gothic" font-weight="700"><tspan x="0" y="0">ズムコン</tspan></text>
          <text id="のプラン" transform="translate(11922 3768)" fill="#323232" font-size="28" font-family="HiraginoSans-W6, Hiragino Sans"><tspan x="0" y="0">のプラン</tspan></text>
        </g>
        <g id="グループ_23" data-name="グループ 23" transform="translate(113 656)">
          <text id="ノーマルプランでは_年齢の近い方と_マッチングできます_" data-name="ノーマルプランでは、
年齢の近い方と
マッチングできます。" transform="translate(300 1565)" fill="#323232" font-size="18" font-family="HiraginoSans-W5, Hiragino Sans"><tspan x="-88.83" y="0">ノーマルプランでは、</tspan><tspan x="-63" y="31">年齢の近い方と</tspan><tspan x="-88.83" y="62">マッチングできます。</tspan></text>
          <text id="男性_500円_女性_無料" data-name="男性：500円、女性：無料" transform="translate(300 1663)" fill="#323232" font-size="16" font-family="HiraginoSans-W3, Hiragino Sans"><tspan x="-95.768" y="0">男性：500円、女性：無料</tspan></text>
        </g>
        <g id="グループ_24" data-name="グループ 24" transform="translate(479 658)">
          <text id="エリアプランでは_年齢_地域の近い方と_マッチングできます_" data-name="エリアプランでは、
年齢、地域の近い方と
マッチングできます。" transform="translate(300 1565)" fill="#323232" font-size="18" font-family="HiraginoSans-W5, Hiragino Sans"><tspan x="-81" y="0">エリアプランでは、</tspan><tspan x="-90" y="31">年齢、地域の近い方と</tspan><tspan x="-88.83" y="62">マッチングできます。</tspan></text>
          <text id="男性_1000円_女性_500円" data-name="男性：1000円、女性：500円" transform="translate(300 1661)" fill="#323232" font-size="14" font-family="HiraginoSans-W4, Hiragino Sans"><tspan x="-95.977" y="0">男性：1000円、女性：500円</tspan></text>
        </g>
        <line id="線_25" data-name="線 25" y1="320" transform="translate(594.5 1999.5)" fill="none" stroke="rgba(21,24,47,0.25)" stroke-width="2.5"/>
        <text id="ノーマルプラン" transform="translate(413 2016)" fill="#323232" font-size="24" font-family="HiraginoSans-W6, Hiragino Sans"><tspan x="-82.2" y="0">ノーマルプラン</tspan></text>
        <text id="エリアプラン" transform="translate(779 2016)" fill="#323232" font-size="24" font-family="HiraginoSans-W6, Hiragino Sans"><tspan x="-72" y="0">エリアプラン</tspan></text>
        <path id="iconmonstr-map-8" d="M50,0C36.883,0,25,10.638,25,23.758,25,43.267,44.929,45.329,50,75c5.071-29.671,25-31.733,25-51.242C75,10.638,63.121,0,50,0Zm0,33.333A8.333,8.333,0,1,1,58.333,25,8.331,8.331,0,0,1,50,33.333ZM100,100,72.054,89.887,50,100,26.746,89.887,0,100,16.667,62.5l16.5-6.6a47.4,47.4,0,0,1,4.421,7.2L22.908,68.979,15.721,85.146l11.133-4.208,6.275-11.2L30.483,82.425l17.454,7.454L50,81.458l1.938,8.433,17.292-7.875L66.654,69.379,73.2,81.446l11.383,4.121L77.342,68.992,62.421,63.1a46.654,46.654,0,0,1,4.425-7.212L83.6,62.5Z" transform="translate(729 2067)"/>
        <path id="iconmonstr-note-14_1_" data-name="iconmonstr-note-14 (1)" d="M10,88V8H74V54.172C74,70.6,50,64,50,64s6.072,24-10.552,24H10ZM82,57.544V0H2V96H42.756C55.408,96,82,67.108,82,57.544ZM62,52H22V48H62Zm0-16H22v4H62Zm0-12H22v4H62Z" transform="translate(371 2069)"/>
        <line id="線_26" data-name="線 26" x1="164" transform="translate(331.5 2021.5)" fill="none" stroke="#f52f7b" stroke-width="2.5"/>
        <line id="線_27" data-name="線 27" x1="144" transform="translate(707.5 2021.5)" fill="none" stroke="#f52f7b" stroke-width="2.5"/>
        <text id="新登場_" data-name="新登場!!" transform="translate(970 2011)" fill="#fff" font-size="24" font-family="HiraginoSans-W6, Hiragino Sans"><tspan x="-44.136" y="0">新登場!!</tspan></text>
      </g>
    </g>
    <rect id="長方形_64" data-name="長方形 64" width="143" height="217" transform="translate(131 1987)" fill="#fff"/>
  </g>
</svg>
