<svg xmlns="http://www.w3.org/2000/svg" width="374.61" height="395" viewBox="0 0 374.61 395">
  <g id="グループ_55" data-name="グループ 55" transform="translate(0 -2478)">
    <text id="_プランは_随時追加予定です_" data-name="※プランは、随時追加予定です。" transform="translate(188 2872)" fill="#323232" font-size="12" font-family="HiraginoSans-W3, Hiragino Sans"><tspan x="-89.4" y="0">※プランは、随時追加予定です。</tspan></text>
    <text id="Plan" transform="translate(142 2510)" fill="#f52f7b" font-size="36" font-family="HiraginoSans-W6, Hiragino Sans" letter-spacing="0.08em"><tspan x="0" y="0">Plan</tspan></text>
    <g id="グループ_14" data-name="グループ 14" transform="translate(94.4 2524.734)">
      <text id="ズムコン" transform="matrix(0.998, -0.07, 0.07, 0.998, 1.465, 28.813)" fill="#323232" font-size="25" font-family="TsukuARdGothic-Bold, Tsukushi A Round Gothic" font-weight="700"><tspan x="0" y="0">ズムコン</tspan></text>
      <text id="のプラン" transform="translate(101.6 23.266)" fill="#323232" font-size="21" font-family="HiraginoSans-W6, Hiragino Sans"><tspan x="0" y="0">のプラン</tspan></text>
    </g>
    <g id="グループ_23" data-name="グループ 23" transform="translate(36 2733.15)">
      <text id="ノーマルプランでは_年齢の近い方と_マッチングできます_" data-name="ノーマルプランでは、
年齢の近い方と
マッチングできます。" transform="translate(61 10.85)" fill="#323232" font-size="12" font-family="HiraginoSans-W5, Hiragino Sans"><tspan x="-59.22" y="0">ノーマルプランでは、</tspan><tspan x="-42" y="20">年齢の近い方と</tspan><tspan x="-59.22" y="40">マッチングできます。</tspan></text>
      <text id="男性:500円_女性:無料" data-name="男性:500円、女性:無料" transform="translate(60 78.85)" fill="#323232" font-size="11" font-family="HiraginoSans-W3, Hiragino Sans"><tspan x="-57.48" y="0">男性:500円、女性:無料</tspan></text>
    </g>
    <g id="グループ_24" data-name="グループ 24" transform="translate(232 2734.347)">
      <text id="エリアプランでは_年齢_地域の近い方と_マッチングできます_" data-name="エリアプランでは、
年齢、地域の近い方と
マッチングできます。" transform="translate(55 9.653)" fill="#323232" font-size="12" font-family="HiraginoSans-W5, Hiragino Sans"><tspan x="-54" y="0">エリアプランでは、</tspan><tspan x="-60" y="20">年齢、地域の近い方と</tspan><tspan x="-59.22" y="40">マッチングできます。</tspan></text>
      <text id="男性:1000円_女性:500円" data-name="男性:1000円、女性:500円" transform="translate(55 76.653)" fill="#323232" font-size="11" font-family="HiraginoSans-W4, Hiragino Sans"><tspan x="-67.16" y="0">男性:1000円、女性:500円</tspan></text>
    </g>
    <line id="線_25" data-name="線 25" y1="210" transform="translate(187.159 2597.391)" fill="none" stroke="rgba(21,24,47,0.25)" stroke-width="2.5"/>
    <text id="ノーマルプラン" transform="translate(96 2603)" fill="#323232" font-size="16" font-family="HiraginoSans-W6, Hiragino Sans"><tspan x="-54.8" y="0">ノーマルプラン</tspan></text>
    <text id="エリアプラン" transform="translate(286 2603)" fill="#323232" font-size="16" font-family="HiraginoSans-W6, Hiragino Sans"><tspan x="-48" y="0">エリアプラン</tspan></text>
    <path id="iconmonstr-map-8" d="M34.424,0C25.393,0,17.212,7.324,17.212,16.357c0,13.431,13.721,14.851,17.212,35.279,3.491-20.428,17.212-21.848,17.212-35.279C51.636,7.324,43.458,0,34.424,0Zm0,22.949a5.737,5.737,0,1,1,5.737-5.737A5.736,5.736,0,0,1,34.424,22.949Zm34.424,45.9-19.24-6.962L34.424,68.848l-16.01-6.962L0,68.848,11.475,43.03l11.36-4.544a32.636,32.636,0,0,1,3.044,4.96L15.772,47.491l-4.948,11.13,7.665-2.9,4.32-7.708-1.822,8.732L33,61.88l1.42-5.8,1.334,5.806,11.9-5.422-1.773-8.7,4.51,8.308,7.837,2.837L53.248,47.5,42.976,43.44a32.12,32.12,0,0,1,3.047-4.966L57.557,43.03Z" transform="translate(252.843 2638.509)"/>
    <path id="iconmonstr-note-14_1_" data-name="iconmonstr-note-14 (1)" d="M7.583,61.41V5.583H52.245V37.8c0,11.464-16.748,6.858-16.748,6.858S39.734,61.41,28.133,61.41H7.583ZM57.827,40.157V0H2V66.993H30.441C39.27,66.993,57.827,46.831,57.827,40.157ZM43.871,36.288H15.957V33.5H43.871Zm0-11.165H15.957v2.791H43.871Zm0-8.374H15.957V19.54H43.871Z" transform="translate(67.926 2640.578)"/>
    <path id="パス_20" data-name="パス 20" d="M110.035,0H0" transform="translate(40.965 2607.43)" fill="none" stroke="#f52f7b" stroke-width="2.5"/>
    <line id="線_27" data-name="線 27" x1="96.459" y1="0.317" transform="translate(238.041 2607.183)" fill="none" stroke="#f52f7b" stroke-width="2.5"/>
    <path id="iconmonstr-weather-90" d="M53.57,34.087c0,3.377-8,13.835-10.658,13.835-2.63,0-8.63-11.058-8.63-14.459,0-3.377,6.035-10.883,8.693-10.883C45.678,22.583,53.57,30.968,53.57,34.087ZM66.277,52.324c1.793,7.6-4.786,15.509-14.612,13.831-4.336,4.151-6.537,9.171-6.537,17.564H38.371c0-8.609-2.676-14.145-6.673-17.972A12.493,12.493,0,0,1,13.953,52.324l.035-.349a17.437,17.437,0,0,1,0-34.185l-.035-.349a17.41,17.41,0,0,1,33.2-7.371c7.9-7.674,21.418-2.986,22.22,7.681a17.423,17.423,0,0,1-3.094,34.572ZM20.6,33.824c0-3.865-.531-10.094,2.588-10.094,1.392,0,7.392-.643,8.191-.308l3.318,1.767a10.347,10.347,0,0,0-4.28-.771c-5.26,0-9.485,3.3-9.485,9.23,0,4.95,3.091,8.686,9.1,8.686a11.224,11.224,0,0,0,4.458-.746l-6.6,3.33c-.774.31-7.078-3.66-8.26-3.66-3.506,0,.976-3.952.976-7.433Zm31.6-.616c0-4.8-5.174-4.7-10.511-4.7-5.128,0-6.191-.2-6.191,5.008,0,4.946,3.014,8.839,8.17,8.839,5.079,0,8.532-3.453,8.532-9.15Zm10.587,9.879L51.28,46.544s5.975-5.833,5.975-8.76c0-2.135,3.077-.875.415-.875-1.594,0-1.792.091-2.678.761l.376-1.1a4.25,4.25,0,0,1,2.515-.977c1.357,0,1.936.76,1.936,1.72-.045,1.723-2.02,3.335-5.375,6.37v1.66l4.579-7.607,3.765,5.346Z" transform="matrix(0.94, 0.342, -0.342, 0.94, 295.94, 2479.846)" fill="#f52f7b"/>
    <text id="新登場_" data-name="新登場!!" transform="translate(325 2538)" fill="#fff" font-size="14" font-family="HiraginoSans-W6, Hiragino Sans"><tspan x="-25.746" y="0">新登場!!</tspan></text>
    <rect id="長方形_69" data-name="長方形 69" width="8" height="79" transform="translate(0 2500)" fill="#fff"/>
  </g>
</svg>
