<svg xmlns="http://www.w3.org/2000/svg" width="110" height="55" viewBox="0 0 110 55">
  <path id="iconmonstr-user-30_2_" data-name="iconmonstr-user-30 (2)" d="M82.486,61H77.912c0-7.113.275-8.135-4.033-9.135-6.591-1.522-12.82-2.956-15.093-7.925-.825-1.815-1.38-4.8.71-8.74,4.68-8.841,5.853-16.422,3.217-20.8-3.08-5.11-12.407-5.133-15.515.078-2.64,4.437-1.448,11.976,3.268,20.68,2.131,3.923,1.6,6.921.77,8.745-2.246,4.991-8.415,6.417-14.951,7.92-4.5,1.04-4.217,1.994-4.217,9.176h-4.56L27.5,58.145c0-5.77.458-9.1,7.278-10.675,7.709-1.783,15.327-3.373,11.665-10.125C35.6,17.339,43.345,6,54.991,6c11.422,0,19.374,10.922,8.557,31.345C60,44.055,67.325,45.65,75.213,47.47c6.829,1.577,7.283,4.913,7.283,10.693Zm22.046-10.147c-5.908-1.366-11.408-2.562-8.745-7.595C103.9,27.94,97.941,19.75,89.37,19.75c-5.8,0-10.3,3.745-10.3,10.656,0,5.816,2.631,9.969,4.143,13.406h4.8c-.779-3.437-6.719-11.743-3.511-17.123,1.888-3.172,7.81-3.176,9.689-.055,1.742,2.892.83,8.305-2.447,14.488-1.778,3.36-1.283,5.963-.555,7.553,1.4,3.052,4.478,4.524,7.961,5.537,6.907,2.021,6.27.193,6.27,6.783h4.57L110,58.873c0-4.331-.339-6.838-5.468-8.021ZM.009,61h4.57c0-6.591-.637-4.762,6.27-6.783,3.488-1.013,6.568-2.484,7.961-5.537.729-1.595,1.224-4.194-.555-7.553-3.277-6.183-4.189-11.6-2.448-14.488,1.879-3.126,7.8-3.121,9.689.055,3.208,5.385-2.732,13.686-3.511,17.123h4.8c1.513-3.438,4.143-7.59,4.143-13.406,0-6.916-4.5-10.661-10.3-10.661-8.571,0-14.529,8.19-6.417,23.508,2.663,5.037-2.837,6.229-8.745,7.595C.339,52.035,0,54.542,0,58.878L.009,61Z" transform="translate(0 -6)"/>
</svg>
