<svg xmlns="http://www.w3.org/2000/svg" width="251.418" height="85.26" viewBox="0 0 251.418 85.26">
  <g id="グループ_104" data-name="グループ 104" transform="translate(-64 -946.847)">
    <g id="グループ_42" data-name="グループ 42" transform="translate(-589 191)">
      <g id="Layer_2" data-name="Layer 2" transform="matrix(0.883, 0.469, -0.469, 0.883, 883.968, 755.606)">
        <g id="heart" transform="translate(0 0)">
          <rect id="長方形_63" data-name="長方形 63" width="13.291" height="13.291" transform="translate(2.77 0)" fill="#f52f7b" opacity="0"/>
          <path id="パス_16" data-name="パス 16" d="M9.613,16.34a.961.961,0,0,1-.682-.279L1.462,8.583A5.03,5.03,0,1,1,8.575,1.47L9.613,2.508,10.652,1.47a5.03,5.03,0,1,1,7.113,7.113L10.3,16.061a.961.961,0,0,1-.682.279ZM5.019,1.922a3.076,3.076,0,0,0-2.192.9,3.114,3.114,0,0,0,0,4.393l6.786,6.8,6.786-6.8a3.114,3.114,0,0,0,0-4.393,3.191,3.191,0,0,0-4.383,0L10.3,4.556a.961.961,0,0,1-1.365,0L7.21,2.826a3.076,3.076,0,0,0-2.192-.9Z" transform="translate(0 0.273)" fill="#f52f7b"/>
        </g>
      </g>
      <g id="グループ_11" data-name="グループ 11" transform="translate(653 772.371)">
        <path id="iconmonstr-party-13" d="M31.906,29.316a6.646,6.646,0,0,1-7.641-4.349,106.044,106.044,0,0,1-3.281-14.681l9.428-3.235c2.534,4.914,5.129,9.827,6.424,13.6a6.644,6.644,0,0,1-3.359,8.122L35.5,34.661c.482,1.352,2.2,1.538,3.974,1.344l.4,1.171-7.857,2.7-.434-1.261c1.5-.794,2.8-2.017,2.343-3.411l-2.019-5.885Zm-25.512-.54a6.644,6.644,0,0,1-3.359-8.122c1.3-3.776,3.891-8.689,6.424-13.6l9.428,3.235a106.044,106.044,0,0,1-3.281,14.681,6.646,6.646,0,0,1-7.641,4.349l-2,5.835c-.462,1.394.842,2.617,2.343,3.411l-.45,1.311L0,37.176l.419-1.221c1.778.2,3.492.008,3.974-1.342ZM31.15,24.09A1.246,1.246,0,1,1,29.9,25.336,1.246,1.246,0,0,1,31.15,24.09ZM6.23,22.428a1.246,1.246,0,1,1-1.246,1.246A1.246,1.246,0,0,1,6.23,22.428Zm4.153-2.492a1.246,1.246,0,1,1-1.246,1.246A1.246,1.246,0,0,1,10.383,19.936ZM29.9,19.758A1.246,1.246,0,1,1,28.658,21,1.246,1.246,0,0,1,29.9,19.758Zm3.221-3.145c-1.1-2.534-2.394-5-3.618-7.5L23,11.35c.356,1.759.681,3.524,1.057,5.263Zm-17.31,0c.375-1.739.7-3.5,1.057-5.263L10.365,9.118c-1.224,2.492-2.517,4.962-3.618,7.5ZM23.982,6.62,26.71,1.985a.83.83,0,1,0-1.43-.844L22.55,5.777a.831.831,0,0,0,1.432.844Zm-7.562.409A.832.832,0,0,1,15.7,6.62l-2.73-4.635a.831.831,0,0,1,1.432-.844l2.73,4.635a.83.83,0,0,1-.716,1.253Zm4.354-1.176V.831a.831.831,0,1,0-1.661,0V5.853a.831.831,0,0,0,1.661,0Z" transform="translate(105.773 22.772)" fill-rule="evenodd"/>
        <g id="グループ_10" data-name="グループ 10">
          <g id="グループ_8" data-name="グループ 8" transform="translate(169.458)">
            <path id="iconmonstr-user-4" d="M33.635,31.186c-4.793-1.1-10.625-3.936-8.907-7.629,1.1,1.817,4.523,2.87,7.186,1.3-7.668-1.945,3.77-15.3-6.253-22.783A10.533,10.533,0,0,0,19.344,0,10.2,10.2,0,0,0,13.1,2.072C3.08,9.558,14.52,22.911,6.85,24.856c2.668,1.573,6.091.472,7.19-1.3,1.719,3.694-4.121,6.531-8.907,7.629C.321,32.289,0,35.173,0,37.654l.008,1.113H3.232c0-3.166-.052-3.818,2.625-4.432,2.638-.606,8.994-2.471,11.073-6.723,1.633-3.339-.032-5.573-2.468-10.858a3.65,3.65,0,0,1-1.617,2.605c-.079-1.118-.242-2.206-.389-3.177-.785-5.209-1.031-8.824,2.622-11.552a7.327,7.327,0,0,1,8.653.031c3.612,2.7,3.366,6.314,2.581,11.522-.144.955-.3,2.024-.384,3.122a3.279,3.279,0,0,1-1.575-2.591c-2.479,5.324-4.156,7.542-2.513,10.9,2.077,4.251,8.437,6.119,11.073,6.723,2.7.62,2.625,1.292,2.625,4.432h3.221l.008-1.119c0-2.481-.321-5.359-5.13-6.461Z" transform="translate(21.598 14.952)"/>
            <path id="iconmonstr-user-4-2" data-name="iconmonstr-user-4" d="M33.635,31.186c-4.793-1.1-10.625-3.936-8.907-7.629,1.1,1.817,4.523,2.87,7.186,1.3-7.668-1.945,3.77-15.3-6.253-22.783A10.533,10.533,0,0,0,19.344,0,10.2,10.2,0,0,0,13.1,2.072C3.08,9.558,14.52,22.911,6.85,24.856c2.668,1.573,6.091.472,7.19-1.3,1.719,3.694-4.121,6.531-8.907,7.629C.321,32.289,0,35.173,0,37.654l.008,1.113H3.232c0-3.166-.052-3.818,2.625-4.432,2.638-.606,8.994-2.471,11.073-6.723,1.633-3.339-.032-5.573-2.468-10.858a3.65,3.65,0,0,1-1.617,2.605c-.079-1.118-.242-2.206-.389-3.177-.785-5.209-1.031-8.824,2.622-11.552a7.327,7.327,0,0,1,8.653.031c3.612,2.7,3.366,6.314,2.581,11.522-.144.955-.3,2.024-.384,3.122a3.279,3.279,0,0,1-1.575-2.591c-2.479,5.324-4.156,7.542-2.513,10.9,2.077,4.251,8.437,6.119,11.073,6.723,2.7.62,2.625,1.292,2.625,4.432h3.221l.008-1.119c0-2.481-.321-5.359-5.13-6.461Z" transform="translate(0)"/>
            <path id="iconmonstr-user-4-3" data-name="iconmonstr-user-4" d="M33.635,31.186c-4.793-1.1-10.625-3.936-8.907-7.629,1.1,1.817,4.523,2.87,7.186,1.3-7.668-1.945,3.77-15.3-6.253-22.783A10.533,10.533,0,0,0,19.344,0,10.2,10.2,0,0,0,13.1,2.072C3.08,9.558,14.52,22.911,6.85,24.856c2.668,1.573,6.091.472,7.19-1.3,1.719,3.694-4.121,6.531-8.907,7.629C.321,32.289,0,35.173,0,37.654l.008,1.113H3.232c0-3.166-.052-3.818,2.625-4.432,2.638-.606,8.994-2.471,11.073-6.723,1.633-3.339-.032-5.573-2.468-10.858a3.65,3.65,0,0,1-1.617,2.605c-.079-1.118-.242-2.206-.389-3.177-.785-5.209-1.031-8.824,2.622-11.552a7.327,7.327,0,0,1,8.653.031c3.612,2.7,3.366,6.314,2.581,11.522-.144.955-.3,2.024-.384,3.122a3.279,3.279,0,0,1-1.575-2.591c-2.479,5.324-4.156,7.542-2.513,10.9,2.077,4.251,8.437,6.119,11.073,6.723,2.7.62,2.625,1.292,2.625,4.432h3.221l.008-1.119c0-2.481-.321-5.359-5.13-6.461Z" transform="translate(43.195 29.904)"/>
          </g>
          <g id="グループ_9" data-name="グループ 9" transform="translate(0 0.067)">
            <path id="iconmonstr-user-15" d="M38.757,38.765H35.534c0-5.014.192-5.734-2.844-6.438-4.647-1.072-9.035-2.085-10.634-5.585a6.732,6.732,0,0,1,.5-6.16c3.3-6.23,4.125-11.573,2.266-14.66-2.166-3.6-8.743-3.62-10.928.055-1.864,3.129-1.026,8.443,2.3,14.577a6.692,6.692,0,0,1,.546,6.162C15.154,30.233,10.8,31.236,6.2,32.3c-3.172.733-2.97,1.405-2.97,6.467H.008L0,36.76c0-4.07.321-6.42,5.133-7.532,5.435-1.255,10.8-2.379,8.221-7.136C5.71,7.994,11.174,0,19.382,0c8.049,0,13.65,7.7,6.028,22.093-2.505,4.729,2.665,5.853,8.221,7.136,4.812,1.111,5.133,3.461,5.133,7.532l-.008,2Zm-21.77-9.691,1.47,3.23h1.88l1.486-3.23H16.987Zm4.838,9.691-1.137-4.846H18.079l-1.137,4.846h4.883Z" transform="translate(0 29.904)"/>
            <path id="iconmonstr-user-15-2" data-name="iconmonstr-user-15" d="M38.757,38.765H35.534c0-5.014.192-5.734-2.844-6.438-4.647-1.072-9.035-2.085-10.634-5.585a6.732,6.732,0,0,1,.5-6.16c3.3-6.23,4.125-11.573,2.266-14.66-2.166-3.6-8.743-3.62-10.928.055-1.864,3.129-1.026,8.443,2.3,14.577a6.692,6.692,0,0,1,.546,6.162C15.154,30.233,10.8,31.236,6.2,32.3c-3.172.733-2.97,1.405-2.97,6.467H.008L0,36.76c0-4.07.321-6.42,5.133-7.532,5.435-1.255,10.8-2.379,8.221-7.136C5.71,7.994,11.174,0,19.382,0c8.049,0,13.65,7.7,6.028,22.093-2.505,4.729,2.665,5.853,8.221,7.136,4.812,1.111,5.133,3.461,5.133,7.532l-.008,2Zm-21.77-9.691,1.47,3.23h1.88l1.486-3.23H16.987Zm4.838,9.691-1.137-4.846H18.079l-1.137,4.846h4.883Z" transform="translate(21.598 14.952)"/>
            <path id="iconmonstr-user-15-3" data-name="iconmonstr-user-15" d="M38.757,38.765H35.534c0-5.014.192-5.734-2.844-6.438-4.647-1.072-9.035-2.085-10.634-5.585a6.732,6.732,0,0,1,.5-6.16c3.3-6.23,4.125-11.573,2.266-14.66-2.166-3.6-8.743-3.62-10.928.055-1.864,3.129-1.026,8.443,2.3,14.577a6.692,6.692,0,0,1,.546,6.162C15.154,30.233,10.8,31.236,6.2,32.3c-3.172.733-2.97,1.405-2.97,6.467H.008L0,36.76c0-4.07.321-6.42,5.133-7.532,5.435-1.255,10.8-2.379,8.221-7.136C5.71,7.994,11.174,0,19.382,0c8.049,0,13.65,7.7,6.028,22.093-2.505,4.729,2.665,5.853,8.221,7.136,4.812,1.111,5.133,3.461,5.133,7.532l-.008,2Zm-21.77-9.691,1.47,3.23h1.88l1.486-3.23H16.987Zm4.838,9.691-1.137-4.846H18.079l-1.137,4.846h4.883Z" transform="translate(43.195 0)"/>
          </g>
        </g>
      </g>
    </g>
  </g>
</svg>
